<mxfile host="app.diagrams.net" agent="Mozilla/5.0 (Windows NT 10.0; Win64; x64) AppleWebKit/537.36 (KHTML, like Gecko) Chrome/134.0.0.0 Safari/537.36" version="26.1.0">
  <diagram name="Page-1" id="DeH48_KG9LklDlgvw2us">
    <mxGraphModel dx="1674" dy="772" grid="1" gridSize="10" guides="1" tooltips="1" connect="1" arrows="1" fold="1" page="1" pageScale="1" pageWidth="827" pageHeight="1169" math="0" shadow="0">
      <root>
        <mxCell id="0" />
        <mxCell id="1" parent="0" />
        <mxCell id="ayPORaFHzWUC7FmvFEba-3" style="edgeStyle=orthogonalEdgeStyle;rounded=0;orthogonalLoop=1;jettySize=auto;html=1;exitX=1;exitY=0.5;exitDx=0;exitDy=0;entryX=0;entryY=0.5;entryDx=0;entryDy=0;" edge="1" parent="1" source="ayPORaFHzWUC7FmvFEba-1" target="ayPORaFHzWUC7FmvFEba-2">
          <mxGeometry relative="1" as="geometry" />
        </mxCell>
        <mxCell id="ayPORaFHzWUC7FmvFEba-36" value="" style="edgeStyle=orthogonalEdgeStyle;rounded=0;orthogonalLoop=1;jettySize=auto;html=1;" edge="1" parent="1" source="ayPORaFHzWUC7FmvFEba-1" target="ayPORaFHzWUC7FmvFEba-4">
          <mxGeometry relative="1" as="geometry" />
        </mxCell>
        <mxCell id="ayPORaFHzWUC7FmvFEba-1" value="start" style="text;html=1;align=center;verticalAlign=middle;whiteSpace=wrap;rounded=0;" vertex="1" parent="1">
          <mxGeometry x="70" y="60" width="60" height="30" as="geometry" />
        </mxCell>
        <mxCell id="ayPORaFHzWUC7FmvFEba-6" style="edgeStyle=orthogonalEdgeStyle;rounded=0;orthogonalLoop=1;jettySize=auto;html=1;exitX=0.5;exitY=1;exitDx=0;exitDy=0;entryX=1;entryY=0.5;entryDx=0;entryDy=0;" edge="1" parent="1" source="ayPORaFHzWUC7FmvFEba-2" target="ayPORaFHzWUC7FmvFEba-5">
          <mxGeometry relative="1" as="geometry" />
        </mxCell>
        <mxCell id="ayPORaFHzWUC7FmvFEba-2" value="" style="rounded=0;whiteSpace=wrap;html=1;fillColor=light-dark(#33FFFF,var(--ge-dark-color, #121212));" vertex="1" parent="1">
          <mxGeometry x="190" y="45" width="150" height="60" as="geometry" />
        </mxCell>
        <mxCell id="ayPORaFHzWUC7FmvFEba-4" value="Inserire biglietto&amp;nbsp;" style="text;html=1;align=center;verticalAlign=middle;whiteSpace=wrap;rounded=0;" vertex="1" parent="1">
          <mxGeometry x="210" y="60" width="110" height="30" as="geometry" />
        </mxCell>
        <mxCell id="ayPORaFHzWUC7FmvFEba-5" value="" style="triangle;whiteSpace=wrap;html=1;direction=north;fillColor=light-dark(#FF3333,var(--ge-dark-color, #121212));" vertex="1" parent="1">
          <mxGeometry x="227.5" y="160" width="75" height="60" as="geometry" />
        </mxCell>
        <mxCell id="ayPORaFHzWUC7FmvFEba-25" style="edgeStyle=orthogonalEdgeStyle;rounded=0;orthogonalLoop=1;jettySize=auto;html=1;exitX=0.5;exitY=1;exitDx=0;exitDy=0;entryX=0.5;entryY=0;entryDx=0;entryDy=0;strokeColor=light-dark(#FF0000,#FFFFFF);" edge="1" parent="1" source="ayPORaFHzWUC7FmvFEba-7" target="ayPORaFHzWUC7FmvFEba-8">
          <mxGeometry relative="1" as="geometry" />
        </mxCell>
        <mxCell id="ayPORaFHzWUC7FmvFEba-27" style="edgeStyle=orthogonalEdgeStyle;rounded=0;orthogonalLoop=1;jettySize=auto;html=1;exitX=1;exitY=0.5;exitDx=0;exitDy=0;entryX=0;entryY=0.5;entryDx=0;entryDy=0;" edge="1" parent="1" source="ayPORaFHzWUC7FmvFEba-7" target="ayPORaFHzWUC7FmvFEba-16">
          <mxGeometry relative="1" as="geometry" />
        </mxCell>
        <mxCell id="ayPORaFHzWUC7FmvFEba-7" value="ValiditÃ " style="text;html=1;align=center;verticalAlign=middle;whiteSpace=wrap;rounded=0;" vertex="1" parent="1">
          <mxGeometry x="235" y="190" width="60" height="30" as="geometry" />
        </mxCell>
        <mxCell id="ayPORaFHzWUC7FmvFEba-8" value="" style="rounded=0;whiteSpace=wrap;html=1;fillColor=light-dark(#33FFFF,var(--ge-dark-color, #121212));" vertex="1" parent="1">
          <mxGeometry x="205" y="290" width="120" height="60" as="geometry" />
        </mxCell>
        <mxCell id="ayPORaFHzWUC7FmvFEba-24" style="edgeStyle=orthogonalEdgeStyle;rounded=0;orthogonalLoop=1;jettySize=auto;html=1;exitX=1;exitY=0.5;exitDx=0;exitDy=0;" edge="1" parent="1" source="ayPORaFHzWUC7FmvFEba-15">
          <mxGeometry relative="1" as="geometry">
            <mxPoint x="460" y="230" as="targetPoint" />
          </mxGeometry>
        </mxCell>
        <mxCell id="ayPORaFHzWUC7FmvFEba-15" value="Chiamata operatore" style="text;html=1;align=center;verticalAlign=middle;whiteSpace=wrap;rounded=0;" vertex="1" parent="1">
          <mxGeometry x="207.5" y="300" width="115" height="30" as="geometry" />
        </mxCell>
        <mxCell id="ayPORaFHzWUC7FmvFEba-18" style="edgeStyle=orthogonalEdgeStyle;rounded=0;orthogonalLoop=1;jettySize=auto;html=1;exitX=1;exitY=0.5;exitDx=0;exitDy=0;" edge="1" parent="1" source="ayPORaFHzWUC7FmvFEba-16" target="ayPORaFHzWUC7FmvFEba-17">
          <mxGeometry relative="1" as="geometry" />
        </mxCell>
        <mxCell id="ayPORaFHzWUC7FmvFEba-16" value="Calcolo prezzo&amp;nbsp;&lt;div&gt;tratta&lt;/div&gt;" style="rounded=0;whiteSpace=wrap;html=1;fillColor=light-dark(#33FFFF,var(--ge-dark-color, #121212));" vertex="1" parent="1">
          <mxGeometry x="400" y="160" width="120" height="60" as="geometry" />
        </mxCell>
        <mxCell id="ayPORaFHzWUC7FmvFEba-20" style="edgeStyle=orthogonalEdgeStyle;rounded=0;orthogonalLoop=1;jettySize=auto;html=1;exitX=0.5;exitY=1;exitDx=0;exitDy=0;entryX=1;entryY=0.5;entryDx=0;entryDy=0;" edge="1" parent="1" source="ayPORaFHzWUC7FmvFEba-17" target="ayPORaFHzWUC7FmvFEba-19">
          <mxGeometry relative="1" as="geometry" />
        </mxCell>
        <mxCell id="ayPORaFHzWUC7FmvFEba-17" value="Pagamento" style="rounded=0;whiteSpace=wrap;html=1;fillColor=light-dark(#33FFFF,var(--ge-dark-color, #121212));" vertex="1" parent="1">
          <mxGeometry x="570" y="160" width="120" height="60" as="geometry" />
        </mxCell>
        <mxCell id="ayPORaFHzWUC7FmvFEba-29" style="edgeStyle=orthogonalEdgeStyle;rounded=0;orthogonalLoop=1;jettySize=auto;html=1;exitX=0.5;exitY=0;exitDx=0;exitDy=0;entryX=0.25;entryY=1;entryDx=0;entryDy=0;strokeColor=light-dark(#FF0000,#FFFFFF);" edge="1" parent="1" source="ayPORaFHzWUC7FmvFEba-19" target="ayPORaFHzWUC7FmvFEba-17">
          <mxGeometry relative="1" as="geometry" />
        </mxCell>
        <mxCell id="ayPORaFHzWUC7FmvFEba-37" style="edgeStyle=orthogonalEdgeStyle;rounded=0;orthogonalLoop=1;jettySize=auto;html=1;exitX=0;exitY=0.5;exitDx=0;exitDy=0;entryX=1;entryY=0.5;entryDx=0;entryDy=0;" edge="1" parent="1" source="ayPORaFHzWUC7FmvFEba-19" target="ayPORaFHzWUC7FmvFEba-31">
          <mxGeometry relative="1" as="geometry" />
        </mxCell>
        <mxCell id="ayPORaFHzWUC7FmvFEba-19" value="&lt;br&gt;&lt;div&gt;&lt;br&gt;&lt;/div&gt;&lt;div&gt;Convalida&lt;/div&gt;" style="triangle;whiteSpace=wrap;html=1;direction=north;fillColor=light-dark(#FF3333,var(--ge-dark-color, #121212));" vertex="1" parent="1">
          <mxGeometry x="592.5" y="270" width="75" height="60" as="geometry" />
        </mxCell>
        <mxCell id="ayPORaFHzWUC7FmvFEba-23" value="Apertura sbarra" style="rounded=0;whiteSpace=wrap;html=1;fillColor=light-dark(#33FFFF,var(--ge-dark-color, #121212));" vertex="1" parent="1">
          <mxGeometry x="650" y="540" width="120" height="60" as="geometry" />
        </mxCell>
        <mxCell id="ayPORaFHzWUC7FmvFEba-34" style="edgeStyle=orthogonalEdgeStyle;rounded=0;orthogonalLoop=1;jettySize=auto;html=1;exitX=0.5;exitY=0;exitDx=0;exitDy=0;" edge="1" parent="1" source="ayPORaFHzWUC7FmvFEba-31">
          <mxGeometry relative="1" as="geometry">
            <mxPoint x="550" y="460" as="targetPoint" />
          </mxGeometry>
        </mxCell>
        <mxCell id="ayPORaFHzWUC7FmvFEba-38" style="edgeStyle=orthogonalEdgeStyle;rounded=0;orthogonalLoop=1;jettySize=auto;html=1;exitX=0.5;exitY=1;exitDx=0;exitDy=0;strokeColor=light-dark(#FF0000,#FFFFFF);" edge="1" parent="1" source="ayPORaFHzWUC7FmvFEba-31">
          <mxGeometry relative="1" as="geometry">
            <mxPoint x="720" y="530" as="targetPoint" />
          </mxGeometry>
        </mxCell>
        <mxCell id="ayPORaFHzWUC7FmvFEba-31" value="&lt;div&gt;&lt;br&gt;&lt;/div&gt;&lt;div&gt;&lt;br&gt;&lt;/div&gt;&lt;div&gt;Resto&lt;/div&gt;" style="triangle;whiteSpace=wrap;html=1;direction=north;fillColor=light-dark(#FF3333,var(--ge-dark-color, #121212));" vertex="1" parent="1">
          <mxGeometry x="592.5" y="380" width="75" height="60" as="geometry" />
        </mxCell>
        <mxCell id="ayPORaFHzWUC7FmvFEba-32" value="Erogazione resto" style="rounded=0;whiteSpace=wrap;html=1;fillColor=light-dark(#33FFFF,var(--ge-dark-color, #121212));" vertex="1" parent="1">
          <mxGeometry x="480" y="470" width="120" height="60" as="geometry" />
        </mxCell>
        <mxCell id="ayPORaFHzWUC7FmvFEba-35" style="edgeStyle=orthogonalEdgeStyle;rounded=0;orthogonalLoop=1;jettySize=auto;html=1;exitX=0.5;exitY=1;exitDx=0;exitDy=0;entryX=0;entryY=0.633;entryDx=0;entryDy=0;entryPerimeter=0;" edge="1" parent="1" source="ayPORaFHzWUC7FmvFEba-32" target="ayPORaFHzWUC7FmvFEba-23">
          <mxGeometry relative="1" as="geometry" />
        </mxCell>
      </root>
    </mxGraphModel>
  </diagram>
</mxfile>
